<svg width="24" height="24" viewBox="0 0 24 24" fill="none" xmlns="http://www.w3.org/2000/svg">
<path d="M9.93746 9.00005H4.31245C3.58873 9.00005 3 8.41132 3 7.68746V4.31245C3 3.58873 3.58873 3 4.31245 3H9.93746C10.6613 3 11.25 3.58873 11.25 4.31245V7.68746C11.25 8.41132 10.6613 9.00005 9.93746 9.00005ZM4.31245 4.125C4.20905 4.125 4.125 4.20905 4.125 4.31245V7.68746C4.125 7.791 4.20905 7.87505 4.31245 7.87505H9.93746C10.041 7.87505 10.125 7.791 10.125 7.68746V4.31245C10.125 4.20905 10.041 4.125 9.93746 4.125H4.31245Z" fill="#1E3BB3"/>
<path d="M9.93746 21H4.31245C3.58873 21 3 20.4113 3 19.6876V11.8126C3 11.0887 3.58873 10.5 4.31245 10.5H9.93746C10.6613 10.5 11.25 11.0887 11.25 11.8126V19.6876C11.25 20.4113 10.6613 21 9.93746 21ZM4.31245 11.625C4.20905 11.625 4.125 11.709 4.125 11.8126V19.6876C4.125 19.791 4.20905 19.875 4.31245 19.875H9.93746C10.041 19.875 10.125 19.791 10.125 19.6876V11.8126C10.125 11.709 10.041 11.625 9.93746 11.625H4.31245Z" fill="#1E3BB3"/>
<path d="M19.6876 21H14.0626C13.3387 21 12.75 20.4113 12.75 19.6876V16.3126C12.75 15.5887 13.3387 15 14.0626 15H19.6876C20.4113 15 21 15.5887 21 16.3126V19.6876C21 20.4113 20.4113 21 19.6876 21V21ZM14.0626 16.125C13.959 16.125 13.875 16.209 13.875 16.3126V19.6876C13.875 19.791 13.959 19.875 14.0626 19.875H19.6876C19.791 19.875 19.875 19.791 19.875 19.6876V16.3126C19.875 16.209 19.791 16.125 19.6876 16.125H14.0626Z" fill="#1E3BB3"/>
<path d="M19.6876 13.5H14.0626C13.3387 13.5 12.75 12.9113 12.75 12.1875V4.31245C12.75 3.58873 13.3387 3 14.0626 3H19.6876C20.4113 3 21 3.58873 21 4.31245V12.1875C21 12.9113 20.4113 13.5 19.6876 13.5ZM14.0626 4.125C13.959 4.125 13.875 4.20905 13.875 4.31245V12.1875C13.875 12.291 13.959 12.375 14.0626 12.375H19.6876C19.791 12.375 19.875 12.291 19.875 12.1875V4.31245C19.875 4.20905 19.791 4.125 19.6876 4.125H14.0626Z" fill="#1E3BB3"/>
</svg>
